<mxfile host="app.diagrams.net" agent="Mozilla/5.0 (Macintosh; Intel Mac OS X 10_15_7) AppleWebKit/605.1.15 (KHTML, like Gecko) Version/18.3 Safari/605.1.15" version="27.2.0">
  <diagram name="第 1 页" id="ac7oLwMHF58mbZaw04J_">
    <mxGraphModel dx="1113" dy="628" grid="1" gridSize="10" guides="1" tooltips="1" connect="1" arrows="1" fold="1" page="1" pageScale="1" pageWidth="827" pageHeight="1169" math="0" shadow="0">
      <root>
        <mxCell id="0" />
        <mxCell id="1" parent="0" />
        <mxCell id="honGNMrvlGHABnvhEgYt-11" style="edgeStyle=orthogonalEdgeStyle;rounded=0;orthogonalLoop=1;jettySize=auto;html=1;exitX=0.5;exitY=1;exitDx=0;exitDy=0;entryX=0.5;entryY=0;entryDx=0;entryDy=0;fontSize=14;" edge="1" parent="1" source="honGNMrvlGHABnvhEgYt-1" target="honGNMrvlGHABnvhEgYt-2">
          <mxGeometry relative="1" as="geometry" />
        </mxCell>
        <mxCell id="honGNMrvlGHABnvhEgYt-1" value="创新成果" style="rounded=1;whiteSpace=wrap;html=1;fontSize=14;" vertex="1" parent="1">
          <mxGeometry x="354" y="60" width="120" height="60" as="geometry" />
        </mxCell>
        <mxCell id="honGNMrvlGHABnvhEgYt-12" style="edgeStyle=orthogonalEdgeStyle;rounded=0;orthogonalLoop=1;jettySize=auto;html=1;exitX=0.5;exitY=1;exitDx=0;exitDy=0;entryX=0.5;entryY=0;entryDx=0;entryDy=0;fontSize=14;" edge="1" parent="1" source="honGNMrvlGHABnvhEgYt-2" target="honGNMrvlGHABnvhEgYt-4">
          <mxGeometry relative="1" as="geometry" />
        </mxCell>
        <mxCell id="honGNMrvlGHABnvhEgYt-13" style="edgeStyle=orthogonalEdgeStyle;rounded=0;orthogonalLoop=1;jettySize=auto;html=1;exitX=0;exitY=0.5;exitDx=0;exitDy=0;entryX=0.5;entryY=0;entryDx=0;entryDy=0;fontSize=14;" edge="1" parent="1" source="honGNMrvlGHABnvhEgYt-2" target="honGNMrvlGHABnvhEgYt-3">
          <mxGeometry relative="1" as="geometry" />
        </mxCell>
        <mxCell id="honGNMrvlGHABnvhEgYt-14" style="edgeStyle=orthogonalEdgeStyle;rounded=0;orthogonalLoop=1;jettySize=auto;html=1;exitX=1;exitY=0.5;exitDx=0;exitDy=0;entryX=0.5;entryY=0;entryDx=0;entryDy=0;fontSize=14;" edge="1" parent="1" source="honGNMrvlGHABnvhEgYt-2" target="honGNMrvlGHABnvhEgYt-5">
          <mxGeometry relative="1" as="geometry" />
        </mxCell>
        <mxCell id="honGNMrvlGHABnvhEgYt-2" value="价值类型" style="rhombus;whiteSpace=wrap;html=1;fontSize=14;" vertex="1" parent="1">
          <mxGeometry x="374" y="160" width="80" height="80" as="geometry" />
        </mxCell>
        <mxCell id="honGNMrvlGHABnvhEgYt-16" style="edgeStyle=orthogonalEdgeStyle;rounded=0;orthogonalLoop=1;jettySize=auto;html=1;exitX=0.5;exitY=1;exitDx=0;exitDy=0;entryX=0.5;entryY=0;entryDx=0;entryDy=0;fontSize=14;" edge="1" parent="1" source="honGNMrvlGHABnvhEgYt-3" target="honGNMrvlGHABnvhEgYt-6">
          <mxGeometry relative="1" as="geometry" />
        </mxCell>
        <mxCell id="honGNMrvlGHABnvhEgYt-3" value="经济收益" style="rounded=1;whiteSpace=wrap;html=1;fontSize=14;" vertex="1" parent="1">
          <mxGeometry x="189" y="280" width="120" height="60" as="geometry" />
        </mxCell>
        <mxCell id="honGNMrvlGHABnvhEgYt-15" style="edgeStyle=orthogonalEdgeStyle;rounded=0;orthogonalLoop=1;jettySize=auto;html=1;exitX=0.5;exitY=1;exitDx=0;exitDy=0;entryX=0.5;entryY=0;entryDx=0;entryDy=0;fontSize=14;" edge="1" parent="1" source="honGNMrvlGHABnvhEgYt-4" target="honGNMrvlGHABnvhEgYt-7">
          <mxGeometry relative="1" as="geometry" />
        </mxCell>
        <mxCell id="honGNMrvlGHABnvhEgYt-4" value="技术积累" style="rounded=1;whiteSpace=wrap;html=1;fontSize=14;" vertex="1" parent="1">
          <mxGeometry x="354" y="280" width="120" height="60" as="geometry" />
        </mxCell>
        <mxCell id="honGNMrvlGHABnvhEgYt-17" style="edgeStyle=orthogonalEdgeStyle;rounded=0;orthogonalLoop=1;jettySize=auto;html=1;exitX=0.5;exitY=1;exitDx=0;exitDy=0;entryX=0.5;entryY=0;entryDx=0;entryDy=0;fontSize=14;" edge="1" parent="1" source="honGNMrvlGHABnvhEgYt-5" target="honGNMrvlGHABnvhEgYt-8">
          <mxGeometry relative="1" as="geometry" />
        </mxCell>
        <mxCell id="honGNMrvlGHABnvhEgYt-5" value="人才成长" style="rounded=1;whiteSpace=wrap;html=1;fontSize=14;" vertex="1" parent="1">
          <mxGeometry x="519" y="280" width="120" height="60" as="geometry" />
        </mxCell>
        <mxCell id="honGNMrvlGHABnvhEgYt-6" value="项目奖励" style="rounded=1;whiteSpace=wrap;html=1;fontSize=14;" vertex="1" parent="1">
          <mxGeometry x="189" y="370" width="120" height="60" as="geometry" />
        </mxCell>
        <mxCell id="honGNMrvlGHABnvhEgYt-18" style="edgeStyle=orthogonalEdgeStyle;rounded=0;orthogonalLoop=1;jettySize=auto;html=1;exitX=0.5;exitY=1;exitDx=0;exitDy=0;entryX=0.5;entryY=0;entryDx=0;entryDy=0;fontSize=14;" edge="1" parent="1" source="honGNMrvlGHABnvhEgYt-7" target="honGNMrvlGHABnvhEgYt-9">
          <mxGeometry relative="1" as="geometry" />
        </mxCell>
        <mxCell id="honGNMrvlGHABnvhEgYt-7" value="纳入成果或专家库" style="rounded=1;whiteSpace=wrap;html=1;fontSize=14;" vertex="1" parent="1">
          <mxGeometry x="354" y="370" width="120" height="60" as="geometry" />
        </mxCell>
        <mxCell id="honGNMrvlGHABnvhEgYt-8" value="技能职级晋升" style="rounded=1;whiteSpace=wrap;html=1;fontSize=14;" vertex="1" parent="1">
          <mxGeometry x="519" y="370" width="120" height="60" as="geometry" />
        </mxCell>
        <mxCell id="honGNMrvlGHABnvhEgYt-9" value="创新成果汇总" style="rounded=1;whiteSpace=wrap;html=1;fontSize=14;" vertex="1" parent="1">
          <mxGeometry x="354" y="480" width="120" height="60" as="geometry" />
        </mxCell>
        <mxCell id="honGNMrvlGHABnvhEgYt-10" value="年度创新达人、评选先进、创新奖励" style="shape=cylinder3;whiteSpace=wrap;html=1;boundedLbl=1;backgroundOutline=1;size=15;fontSize=14;" vertex="1" parent="1">
          <mxGeometry x="349" y="585" width="130" height="80" as="geometry" />
        </mxCell>
        <mxCell id="honGNMrvlGHABnvhEgYt-19" style="edgeStyle=orthogonalEdgeStyle;rounded=0;orthogonalLoop=1;jettySize=auto;html=1;exitX=0.5;exitY=1;exitDx=0;exitDy=0;entryX=0.5;entryY=0;entryDx=0;entryDy=0;entryPerimeter=0;fontSize=14;" edge="1" parent="1" source="honGNMrvlGHABnvhEgYt-9" target="honGNMrvlGHABnvhEgYt-10">
          <mxGeometry relative="1" as="geometry" />
        </mxCell>
      </root>
    </mxGraphModel>
  </diagram>
</mxfile>
